# xmcd
#
# Track frame offsets:
#	150
#	13588
#	27078
#	42925
#	58760
#	75648
#	89788
#	105453
#	120100
#	134588
#	145738
#	160518
#	181403
#	199023
#	215425
#	237935
#	259438
#	274688
#	291153
#	304213
#
# Disc length: 4293
#
# Revision: 3
# Processed by: cddbd v1.5.1PL0 Copyright (c) Steve Scherf et al.
# Submitted via: CDex 1.30
# Normalized: r1:DSETVAR1,TDELIM( - ),TSWAP
#
DISCID=1b10c314
DTITLE=Various Artist - High Performance Country 1993 Edition
DYEAR=1993
DGENRE=Country
TTITLE0=Brooks and Dunn - Hard Workin' Man
TTITLE1=Diamond Rio - In A Week Or Two
TTITLE2=Pam Tillis - Let That Pony Run
TTITLE3=Radney Foster - Nobody Wins
TTITLE4=Michelle Wright - The Change
TTITLE5=Lee Roy Parnell - Tender Moment
TTITLE6=Dude Mowrey - Maybe You Were The One
TTITLE7=Diamond Rio - Oh Me, Oh My, Sweet Baby
TTITLE8=Pam Tillis - Cleopatra, Queen Of Denial
TTITLE9=Alan Jackson - Chattahoochee
TTITLE10=Steve Wariner - If I Didn't Love You
TTITLE11=Lee Roy Parnell - On The Road
TTITLE12=Brooks and Dunn - She Used To Be Mine
TTITLE13=Alan Jackson - Mercury Blues
TTITLE14=Radney Foster - Hammer and Nails
TTITLE15=Steve Wariner - Drivin' and Cryin'
TTITLE16=Blackhawk - Goodbye Says It All
TTITLE17=Lee Roy Parnell - Power Of Love
TTITLE18=Dude Mowrey - Somewhere In Between
TTITLE19=Tractors - Baby Like To Rock It
EXTD=\nYEAR: 1993  ID3G:   2
EXTT0=
EXTT1=
EXTT2=
EXTT3=
EXTT4=
EXTT5=
EXTT6=
EXTT7=
EXTT8=
EXTT9=
EXTT10=
EXTT11=
EXTT12=
EXTT13=
EXTT14=
EXTT15=
EXTT16=
EXTT17=
EXTT18=
EXTT19=
PLAYORDER=
